<mxfile host="app.diagrams.net" agent="Mozilla/5.0 (Windows NT 10.0; Win64; x64) AppleWebKit/537.36 (KHTML, like Gecko) Chrome/136.0.0.0 Safari/537.36" version="26.2.13">
  <diagram id="C5RBs43oDa-KdzZeNtuy" name="Page-1">
    <mxGraphModel dx="2251" dy="1311" grid="1" gridSize="10" guides="1" tooltips="1" connect="1" arrows="1" fold="1" page="1" pageScale="1" pageWidth="827" pageHeight="1169" math="0" shadow="0">
      <root>
        <mxCell id="WIyWlLk6GJQsqaUBKTNV-0" />
        <mxCell id="WIyWlLk6GJQsqaUBKTNV-1" parent="WIyWlLk6GJQsqaUBKTNV-0" />
        <mxCell id="WIyWlLk6GJQsqaUBKTNV-2" value="" style="rounded=0;html=1;jettySize=auto;orthogonalLoop=1;fontSize=11;endArrow=block;endFill=0;endSize=8;strokeWidth=1;shadow=0;labelBackgroundColor=none;edgeStyle=orthogonalEdgeStyle;" parent="WIyWlLk6GJQsqaUBKTNV-1" edge="1">
          <mxGeometry relative="1" as="geometry">
            <mxPoint x="220" y="90" as="sourcePoint" />
            <mxPoint x="220" y="140" as="targetPoint" />
          </mxGeometry>
        </mxCell>
        <mxCell id="WIyWlLk6GJQsqaUBKTNV-4" value="" style="rounded=0;html=1;jettySize=auto;orthogonalLoop=1;fontSize=11;endArrow=block;endFill=0;endSize=8;strokeWidth=1;shadow=0;labelBackgroundColor=none;edgeStyle=orthogonalEdgeStyle;" parent="WIyWlLk6GJQsqaUBKTNV-1" edge="1">
          <mxGeometry y="20" relative="1" as="geometry">
            <mxPoint as="offset" />
            <mxPoint x="220" y="250" as="sourcePoint" />
            <mxPoint x="220" y="300" as="targetPoint" />
          </mxGeometry>
        </mxCell>
        <mxCell id="jRuMcLEhQL0jCplDiOdC-4" style="edgeStyle=orthogonalEdgeStyle;rounded=0;orthogonalLoop=1;jettySize=auto;html=1;entryX=0.5;entryY=0;entryDx=0;entryDy=0;" edge="1" parent="WIyWlLk6GJQsqaUBKTNV-1" source="jRuMcLEhQL0jCplDiOdC-14">
          <mxGeometry relative="1" as="geometry">
            <mxPoint x="220" y="460" as="sourcePoint" />
            <mxPoint x="220" y="510" as="targetPoint" />
          </mxGeometry>
        </mxCell>
        <mxCell id="jRuMcLEhQL0jCplDiOdC-8" style="edgeStyle=orthogonalEdgeStyle;rounded=0;orthogonalLoop=1;jettySize=auto;html=1;exitX=0.5;exitY=1;exitDx=0;exitDy=0;entryX=0.5;entryY=0;entryDx=0;entryDy=0;" edge="1" parent="WIyWlLk6GJQsqaUBKTNV-1" source="jRuMcLEhQL0jCplDiOdC-11" target="jRuMcLEhQL0jCplDiOdC-7">
          <mxGeometry relative="1" as="geometry">
            <mxPoint x="220" y="590" as="sourcePoint" />
          </mxGeometry>
        </mxCell>
        <mxCell id="jRuMcLEhQL0jCplDiOdC-6" value="player can move left and right&amp;nbsp;" style="text;html=1;align=center;verticalAlign=middle;resizable=0;points=[];autosize=1;strokeColor=none;fillColor=none;" vertex="1" parent="WIyWlLk6GJQsqaUBKTNV-1">
          <mxGeometry x="290" y="525" width="180" height="30" as="geometry" />
        </mxCell>
        <mxCell id="jRuMcLEhQL0jCplDiOdC-16" style="edgeStyle=orthogonalEdgeStyle;rounded=0;orthogonalLoop=1;jettySize=auto;html=1;exitX=0.5;exitY=1;exitDx=0;exitDy=0;entryX=0.5;entryY=0;entryDx=0;entryDy=0;" edge="1" parent="WIyWlLk6GJQsqaUBKTNV-1" source="jRuMcLEhQL0jCplDiOdC-7" target="jRuMcLEhQL0jCplDiOdC-15">
          <mxGeometry relative="1" as="geometry" />
        </mxCell>
        <mxCell id="jRuMcLEhQL0jCplDiOdC-7" value="enemies will spawn randomly" style="rounded=1;whiteSpace=wrap;html=1;" vertex="1" parent="WIyWlLk6GJQsqaUBKTNV-1">
          <mxGeometry x="160" y="680" width="120" height="60" as="geometry" />
        </mxCell>
        <mxCell id="jRuMcLEhQL0jCplDiOdC-10" value="start" style="ellipse;whiteSpace=wrap;html=1;" vertex="1" parent="WIyWlLk6GJQsqaUBKTNV-1">
          <mxGeometry x="160" y="10" width="120" height="80" as="geometry" />
        </mxCell>
        <mxCell id="jRuMcLEhQL0jCplDiOdC-11" value="player update" style="rounded=0;whiteSpace=wrap;html=1;" vertex="1" parent="WIyWlLk6GJQsqaUBKTNV-1">
          <mxGeometry x="160" y="510" width="120" height="60" as="geometry" />
        </mxCell>
        <mxCell id="jRuMcLEhQL0jCplDiOdC-14" value="&lt;br&gt;&lt;span style=&quot;color: rgb(0, 0, 0); font-family: Helvetica; font-size: 12px; font-style: normal; font-variant-ligatures: normal; font-variant-caps: normal; font-weight: 400; letter-spacing: normal; orphans: 2; text-align: left; text-indent: 0px; text-transform: none; widows: 2; word-spacing: 0px; -webkit-text-stroke-width: 0px; white-space: normal; background-color: rgb(236, 236, 236); text-decoration-thickness: initial; text-decoration-style: initial; text-decoration-color: initial; float: none; display: inline !important;&quot;&gt;Create Player, Bullets, Enemies, PowerUps&lt;/span&gt;&lt;div&gt;&lt;div style=&quot;text-align: left;&quot;&gt;&amp;nbsp; &amp;nbsp; &amp;nbsp; &amp;nbsp; &amp;nbsp; &amp;nbsp; &amp;nbsp; &amp;nbsp; &amp;nbsp; &amp;nbsp; &amp;nbsp; &amp;nbsp; &amp;nbsp; &amp;nbsp; level-1&lt;/div&gt;&lt;br&gt;&lt;/div&gt;" style="rounded=1;whiteSpace=wrap;html=1;" vertex="1" parent="WIyWlLk6GJQsqaUBKTNV-1">
          <mxGeometry x="90" y="300" width="260" height="150" as="geometry" />
        </mxCell>
        <mxCell id="jRuMcLEhQL0jCplDiOdC-22" style="edgeStyle=orthogonalEdgeStyle;rounded=0;orthogonalLoop=1;jettySize=auto;html=1;exitX=0.5;exitY=1;exitDx=0;exitDy=0;" edge="1" parent="WIyWlLk6GJQsqaUBKTNV-1" source="jRuMcLEhQL0jCplDiOdC-15" target="jRuMcLEhQL0jCplDiOdC-21">
          <mxGeometry relative="1" as="geometry" />
        </mxCell>
        <mxCell id="jRuMcLEhQL0jCplDiOdC-24" style="edgeStyle=orthogonalEdgeStyle;rounded=0;orthogonalLoop=1;jettySize=auto;html=1;exitX=1;exitY=1;exitDx=0;exitDy=0;" edge="1" parent="WIyWlLk6GJQsqaUBKTNV-1" source="jRuMcLEhQL0jCplDiOdC-25">
          <mxGeometry relative="1" as="geometry">
            <mxPoint x="440" y="1030" as="targetPoint" />
          </mxGeometry>
        </mxCell>
        <mxCell id="jRuMcLEhQL0jCplDiOdC-15" value="if player press space bar bullet will fire" style="rhombus;whiteSpace=wrap;html=1;" vertex="1" parent="WIyWlLk6GJQsqaUBKTNV-1">
          <mxGeometry x="90" y="770" width="260" height="200" as="geometry" />
        </mxCell>
        <mxCell id="jRuMcLEhQL0jCplDiOdC-35" style="edgeStyle=orthogonalEdgeStyle;rounded=0;orthogonalLoop=1;jettySize=auto;html=1;exitX=0.5;exitY=1;exitDx=0;exitDy=0;entryX=0.5;entryY=0;entryDx=0;entryDy=0;" edge="1" parent="WIyWlLk6GJQsqaUBKTNV-1" source="jRuMcLEhQL0jCplDiOdC-21" target="jRuMcLEhQL0jCplDiOdC-34">
          <mxGeometry relative="1" as="geometry" />
        </mxCell>
        <mxCell id="jRuMcLEhQL0jCplDiOdC-21" value="if bullet touches enemy it dsappear" style="rhombus;whiteSpace=wrap;html=1;" vertex="1" parent="WIyWlLk6GJQsqaUBKTNV-1">
          <mxGeometry x="130" y="1040" width="180" height="130" as="geometry" />
        </mxCell>
        <mxCell id="jRuMcLEhQL0jCplDiOdC-23" value="initialize the window throgh raylib" style="rounded=1;whiteSpace=wrap;html=1;" vertex="1" parent="WIyWlLk6GJQsqaUBKTNV-1">
          <mxGeometry x="160" y="130" width="120" height="120" as="geometry" />
        </mxCell>
        <mxCell id="jRuMcLEhQL0jCplDiOdC-28" style="edgeStyle=orthogonalEdgeStyle;rounded=0;orthogonalLoop=1;jettySize=auto;html=1;exitX=0.5;exitY=1;exitDx=0;exitDy=0;entryX=0.5;entryY=0;entryDx=0;entryDy=0;" edge="1" parent="WIyWlLk6GJQsqaUBKTNV-1" source="jRuMcLEhQL0jCplDiOdC-25" target="jRuMcLEhQL0jCplDiOdC-27">
          <mxGeometry relative="1" as="geometry" />
        </mxCell>
        <mxCell id="jRuMcLEhQL0jCplDiOdC-30" style="edgeStyle=orthogonalEdgeStyle;rounded=0;orthogonalLoop=1;jettySize=auto;html=1;exitX=0.5;exitY=1;exitDx=0;exitDy=0;entryX=0.5;entryY=0;entryDx=0;entryDy=0;" edge="1" parent="WIyWlLk6GJQsqaUBKTNV-1" source="jRuMcLEhQL0jCplDiOdC-27" target="jRuMcLEhQL0jCplDiOdC-29">
          <mxGeometry relative="1" as="geometry" />
        </mxCell>
        <mxCell id="jRuMcLEhQL0jCplDiOdC-27" value="enemy passes throgh player line 3 times game will over" style="rounded=1;whiteSpace=wrap;html=1;" vertex="1" parent="WIyWlLk6GJQsqaUBKTNV-1">
          <mxGeometry x="340" y="1060" width="200" height="120" as="geometry" />
        </mxCell>
        <mxCell id="jRuMcLEhQL0jCplDiOdC-33" style="edgeStyle=orthogonalEdgeStyle;rounded=0;orthogonalLoop=1;jettySize=auto;html=1;exitX=1;exitY=0.5;exitDx=0;exitDy=0;" edge="1" parent="WIyWlLk6GJQsqaUBKTNV-1" source="jRuMcLEhQL0jCplDiOdC-29">
          <mxGeometry relative="1" as="geometry">
            <mxPoint x="230" y="290" as="targetPoint" />
            <Array as="points">
              <mxPoint x="500" y="1290" />
              <mxPoint x="660" y="1290" />
              <mxPoint x="660" y="260" />
              <mxPoint x="231" y="260" />
              <mxPoint x="231" y="280" />
            </Array>
          </mxGeometry>
        </mxCell>
        <mxCell id="jRuMcLEhQL0jCplDiOdC-29" value="game over" style="ellipse;whiteSpace=wrap;html=1;" vertex="1" parent="WIyWlLk6GJQsqaUBKTNV-1">
          <mxGeometry x="380" y="1240" width="120" height="80" as="geometry" />
        </mxCell>
        <mxCell id="jRuMcLEhQL0jCplDiOdC-37" style="edgeStyle=orthogonalEdgeStyle;rounded=0;orthogonalLoop=1;jettySize=auto;html=1;exitX=0.5;exitY=1;exitDx=0;exitDy=0;entryX=0.5;entryY=0;entryDx=0;entryDy=0;" edge="1" parent="WIyWlLk6GJQsqaUBKTNV-1" source="jRuMcLEhQL0jCplDiOdC-34" target="jRuMcLEhQL0jCplDiOdC-36">
          <mxGeometry relative="1" as="geometry" />
        </mxCell>
        <mxCell id="jRuMcLEhQL0jCplDiOdC-34" value="power up genrate random" style="rounded=1;whiteSpace=wrap;html=1;" vertex="1" parent="WIyWlLk6GJQsqaUBKTNV-1">
          <mxGeometry x="160" y="1250" width="120" height="60" as="geometry" />
        </mxCell>
        <mxCell id="jRuMcLEhQL0jCplDiOdC-42" style="edgeStyle=orthogonalEdgeStyle;rounded=0;orthogonalLoop=1;jettySize=auto;html=1;exitX=0.5;exitY=1;exitDx=0;exitDy=0;entryX=0.5;entryY=0;entryDx=0;entryDy=0;" edge="1" parent="WIyWlLk6GJQsqaUBKTNV-1" source="jRuMcLEhQL0jCplDiOdC-36" target="jRuMcLEhQL0jCplDiOdC-41">
          <mxGeometry relative="1" as="geometry" />
        </mxCell>
        <mxCell id="jRuMcLEhQL0jCplDiOdC-36" value="if powerups touches player affect will produce" style="rhombus;whiteSpace=wrap;html=1;" vertex="1" parent="WIyWlLk6GJQsqaUBKTNV-1">
          <mxGeometry x="60" y="1380" width="320" height="180" as="geometry" />
        </mxCell>
        <mxCell id="jRuMcLEhQL0jCplDiOdC-38" value="" style="edgeStyle=orthogonalEdgeStyle;rounded=0;orthogonalLoop=1;jettySize=auto;html=1;exitX=1;exitY=1;exitDx=0;exitDy=0;" edge="1" parent="WIyWlLk6GJQsqaUBKTNV-1" source="jRuMcLEhQL0jCplDiOdC-15" target="jRuMcLEhQL0jCplDiOdC-25">
          <mxGeometry relative="1" as="geometry">
            <mxPoint x="440" y="1030" as="targetPoint" />
            <mxPoint x="285" y="920" as="sourcePoint" />
          </mxGeometry>
        </mxCell>
        <mxCell id="jRuMcLEhQL0jCplDiOdC-25" value="if not" style="rhombus;whiteSpace=wrap;html=1;" vertex="1" parent="WIyWlLk6GJQsqaUBKTNV-1">
          <mxGeometry x="400" y="940" width="80" height="80" as="geometry" />
        </mxCell>
        <mxCell id="jRuMcLEhQL0jCplDiOdC-39" value="if health powerup appear it will player lives by 1 and if bullet power up touches the lines of bullet will double and then triple max" style="text;html=1;align=center;verticalAlign=middle;resizable=0;points=[];autosize=1;strokeColor=none;fillColor=none;" vertex="1" parent="WIyWlLk6GJQsqaUBKTNV-1">
          <mxGeometry x="380" y="1455" width="700" height="30" as="geometry" />
        </mxCell>
        <mxCell id="jRuMcLEhQL0jCplDiOdC-45" style="edgeStyle=orthogonalEdgeStyle;rounded=0;orthogonalLoop=1;jettySize=auto;html=1;exitX=0.5;exitY=1;exitDx=0;exitDy=0;entryX=0.5;entryY=0;entryDx=0;entryDy=0;" edge="1" parent="WIyWlLk6GJQsqaUBKTNV-1" source="jRuMcLEhQL0jCplDiOdC-41" target="jRuMcLEhQL0jCplDiOdC-44">
          <mxGeometry relative="1" as="geometry" />
        </mxCell>
        <mxCell id="jRuMcLEhQL0jCplDiOdC-41" value="if player hits 10 enemies then level-2 will appeear" style="rhombus;whiteSpace=wrap;html=1;" vertex="1" parent="WIyWlLk6GJQsqaUBKTNV-1">
          <mxGeometry x="60" y="1660" width="320" height="210" as="geometry" />
        </mxCell>
        <mxCell id="jRuMcLEhQL0jCplDiOdC-43" value="when level-2 will appear all the enemies will hide and new enemies will spawn" style="text;html=1;align=center;verticalAlign=middle;resizable=0;points=[];autosize=1;strokeColor=none;fillColor=none;" vertex="1" parent="WIyWlLk6GJQsqaUBKTNV-1">
          <mxGeometry x="390" y="1750" width="440" height="30" as="geometry" />
        </mxCell>
        <mxCell id="jRuMcLEhQL0jCplDiOdC-47" style="edgeStyle=orthogonalEdgeStyle;rounded=0;orthogonalLoop=1;jettySize=auto;html=1;exitX=0.5;exitY=1;exitDx=0;exitDy=0;entryX=0.5;entryY=0;entryDx=0;entryDy=0;" edge="1" parent="WIyWlLk6GJQsqaUBKTNV-1" source="jRuMcLEhQL0jCplDiOdC-44" target="jRuMcLEhQL0jCplDiOdC-46">
          <mxGeometry relative="1" as="geometry" />
        </mxCell>
        <mxCell id="jRuMcLEhQL0jCplDiOdC-44" value="speed of enemies 2x" style="rounded=0;whiteSpace=wrap;html=1;" vertex="1" parent="WIyWlLk6GJQsqaUBKTNV-1">
          <mxGeometry x="160" y="1990" width="120" height="60" as="geometry" />
        </mxCell>
        <mxCell id="jRuMcLEhQL0jCplDiOdC-50" style="edgeStyle=orthogonalEdgeStyle;rounded=0;orthogonalLoop=1;jettySize=auto;html=1;exitX=0.5;exitY=1;exitDx=0;exitDy=0;" edge="1" parent="WIyWlLk6GJQsqaUBKTNV-1" source="jRuMcLEhQL0jCplDiOdC-46" target="jRuMcLEhQL0jCplDiOdC-48">
          <mxGeometry relative="1" as="geometry" />
        </mxCell>
        <mxCell id="jRuMcLEhQL0jCplDiOdC-71" style="edgeStyle=orthogonalEdgeStyle;rounded=0;orthogonalLoop=1;jettySize=auto;html=1;exitX=1;exitY=1;exitDx=0;exitDy=0;entryX=0.5;entryY=0;entryDx=0;entryDy=0;" edge="1" parent="WIyWlLk6GJQsqaUBKTNV-1" source="jRuMcLEhQL0jCplDiOdC-46" target="jRuMcLEhQL0jCplDiOdC-70">
          <mxGeometry relative="1" as="geometry" />
        </mxCell>
        <mxCell id="jRuMcLEhQL0jCplDiOdC-46" value="leve;-2 in this player have to destroy 15 enemies" style="rounded=1;whiteSpace=wrap;html=1;" vertex="1" parent="WIyWlLk6GJQsqaUBKTNV-1">
          <mxGeometry x="160" y="2160" width="120" height="60" as="geometry" />
        </mxCell>
        <mxCell id="jRuMcLEhQL0jCplDiOdC-52" style="edgeStyle=orthogonalEdgeStyle;rounded=0;orthogonalLoop=1;jettySize=auto;html=1;exitX=0.5;exitY=1;exitDx=0;exitDy=0;entryX=0.5;entryY=0;entryDx=0;entryDy=0;" edge="1" parent="WIyWlLk6GJQsqaUBKTNV-1" source="jRuMcLEhQL0jCplDiOdC-48" target="jRuMcLEhQL0jCplDiOdC-51">
          <mxGeometry relative="1" as="geometry" />
        </mxCell>
        <mxCell id="jRuMcLEhQL0jCplDiOdC-48" value="if done" style="rhombus;whiteSpace=wrap;html=1;" vertex="1" parent="WIyWlLk6GJQsqaUBKTNV-1">
          <mxGeometry x="180" y="2310" width="80" height="80" as="geometry" />
        </mxCell>
        <mxCell id="jRuMcLEhQL0jCplDiOdC-55" style="edgeStyle=orthogonalEdgeStyle;rounded=0;orthogonalLoop=1;jettySize=auto;html=1;exitX=0.5;exitY=1;exitDx=0;exitDy=0;entryX=0.5;entryY=0;entryDx=0;entryDy=0;" edge="1" parent="WIyWlLk6GJQsqaUBKTNV-1" source="jRuMcLEhQL0jCplDiOdC-51" target="jRuMcLEhQL0jCplDiOdC-54">
          <mxGeometry relative="1" as="geometry" />
        </mxCell>
        <mxCell id="jRuMcLEhQL0jCplDiOdC-51" value="level-3 will appear" style="rounded=1;whiteSpace=wrap;html=1;" vertex="1" parent="WIyWlLk6GJQsqaUBKTNV-1">
          <mxGeometry x="160" y="2480" width="120" height="60" as="geometry" />
        </mxCell>
        <mxCell id="jRuMcLEhQL0jCplDiOdC-53" value="same as level-2 when new level appear all other enemies will hide but powerups will move same" style="text;html=1;align=center;verticalAlign=middle;resizable=0;points=[];autosize=1;strokeColor=none;fillColor=none;" vertex="1" parent="WIyWlLk6GJQsqaUBKTNV-1">
          <mxGeometry x="287" y="2495" width="540" height="30" as="geometry" />
        </mxCell>
        <mxCell id="jRuMcLEhQL0jCplDiOdC-58" style="edgeStyle=orthogonalEdgeStyle;rounded=0;orthogonalLoop=1;jettySize=auto;html=1;exitX=0.5;exitY=1;exitDx=0;exitDy=0;entryX=0.5;entryY=0;entryDx=0;entryDy=0;" edge="1" parent="WIyWlLk6GJQsqaUBKTNV-1" source="jRuMcLEhQL0jCplDiOdC-54" target="jRuMcLEhQL0jCplDiOdC-57">
          <mxGeometry relative="1" as="geometry" />
        </mxCell>
        <mxCell id="jRuMcLEhQL0jCplDiOdC-65" style="edgeStyle=orthogonalEdgeStyle;rounded=0;orthogonalLoop=1;jettySize=auto;html=1;exitX=1;exitY=1;exitDx=0;exitDy=0;entryX=0.5;entryY=0;entryDx=0;entryDy=0;" edge="1" parent="WIyWlLk6GJQsqaUBKTNV-1" source="jRuMcLEhQL0jCplDiOdC-54" target="jRuMcLEhQL0jCplDiOdC-64">
          <mxGeometry relative="1" as="geometry" />
        </mxCell>
        <mxCell id="jRuMcLEhQL0jCplDiOdC-54" value="boss is in level-3 with 100 hp" style="rounded=1;whiteSpace=wrap;html=1;" vertex="1" parent="WIyWlLk6GJQsqaUBKTNV-1">
          <mxGeometry x="160" y="2640" width="120" height="60" as="geometry" />
        </mxCell>
        <mxCell id="jRuMcLEhQL0jCplDiOdC-56" value="boss can also throw bullet random with movement" style="text;html=1;align=center;verticalAlign=middle;resizable=0;points=[];autosize=1;strokeColor=none;fillColor=none;" vertex="1" parent="WIyWlLk6GJQsqaUBKTNV-1">
          <mxGeometry x="287" y="2648" width="290" height="30" as="geometry" />
        </mxCell>
        <mxCell id="jRuMcLEhQL0jCplDiOdC-61" style="edgeStyle=orthogonalEdgeStyle;rounded=0;orthogonalLoop=1;jettySize=auto;html=1;exitX=0.5;exitY=1;exitDx=0;exitDy=0;entryX=0.5;entryY=0;entryDx=0;entryDy=0;" edge="1" parent="WIyWlLk6GJQsqaUBKTNV-1" source="jRuMcLEhQL0jCplDiOdC-57" target="jRuMcLEhQL0jCplDiOdC-60">
          <mxGeometry relative="1" as="geometry" />
        </mxCell>
        <mxCell id="jRuMcLEhQL0jCplDiOdC-57" value="if player destroy bos&lt;span style=&quot;background-color: transparent; color: light-dark(rgb(0, 0, 0), rgb(255, 255, 255));&quot;&gt;s&lt;/span&gt;&lt;div&gt;&lt;span style=&quot;background-color: transparent; color: light-dark(rgb(0, 0, 0), rgb(255, 255, 255));&quot;&gt;&quot;player win&quot;&lt;/span&gt;&lt;/div&gt;" style="rhombus;whiteSpace=wrap;html=1;" vertex="1" parent="WIyWlLk6GJQsqaUBKTNV-1">
          <mxGeometry x="140" y="2780" width="160" height="110" as="geometry" />
        </mxCell>
        <mxCell id="jRuMcLEhQL0jCplDiOdC-63" style="edgeStyle=orthogonalEdgeStyle;rounded=0;orthogonalLoop=1;jettySize=auto;html=1;exitX=1;exitY=0.5;exitDx=0;exitDy=0;" edge="1" parent="WIyWlLk6GJQsqaUBKTNV-1" source="jRuMcLEhQL0jCplDiOdC-60">
          <mxGeometry relative="1" as="geometry">
            <mxPoint x="220" y="270" as="targetPoint" />
            <Array as="points">
              <mxPoint x="1100" y="3010" />
              <mxPoint x="1100" y="260" />
              <mxPoint x="220" y="260" />
            </Array>
          </mxGeometry>
        </mxCell>
        <mxCell id="jRuMcLEhQL0jCplDiOdC-60" value="game ends" style="ellipse;whiteSpace=wrap;html=1;" vertex="1" parent="WIyWlLk6GJQsqaUBKTNV-1">
          <mxGeometry x="160" y="2970" width="190" height="80" as="geometry" />
        </mxCell>
        <mxCell id="jRuMcLEhQL0jCplDiOdC-66" style="edgeStyle=orthogonalEdgeStyle;rounded=0;orthogonalLoop=1;jettySize=auto;html=1;exitX=0.5;exitY=1;exitDx=0;exitDy=0;entryX=1;entryY=0;entryDx=0;entryDy=0;" edge="1" parent="WIyWlLk6GJQsqaUBKTNV-1" source="jRuMcLEhQL0jCplDiOdC-64" target="jRuMcLEhQL0jCplDiOdC-60">
          <mxGeometry relative="1" as="geometry" />
        </mxCell>
        <mxCell id="jRuMcLEhQL0jCplDiOdC-64" value="if not&amp;nbsp;" style="rhombus;whiteSpace=wrap;html=1;" vertex="1" parent="WIyWlLk6GJQsqaUBKTNV-1">
          <mxGeometry x="350" y="2795" width="80" height="80" as="geometry" />
        </mxCell>
        <mxCell id="jRuMcLEhQL0jCplDiOdC-69" value="game loop" style="text;html=1;align=center;verticalAlign=middle;resizable=0;points=[];autosize=1;strokeColor=none;fillColor=none;" vertex="1" parent="WIyWlLk6GJQsqaUBKTNV-1">
          <mxGeometry x="230" y="268" width="80" height="30" as="geometry" />
        </mxCell>
        <mxCell id="jRuMcLEhQL0jCplDiOdC-70" value="if not and live =0" style="rhombus;whiteSpace=wrap;html=1;" vertex="1" parent="WIyWlLk6GJQsqaUBKTNV-1">
          <mxGeometry x="360" y="2160" width="130" height="80" as="geometry" />
        </mxCell>
        <mxCell id="jRuMcLEhQL0jCplDiOdC-72" value="game over" style="ellipse;whiteSpace=wrap;html=1;" vertex="1" parent="WIyWlLk6GJQsqaUBKTNV-1">
          <mxGeometry x="490" y="2330" width="90" height="80" as="geometry" />
        </mxCell>
        <mxCell id="jRuMcLEhQL0jCplDiOdC-73" style="edgeStyle=orthogonalEdgeStyle;rounded=0;orthogonalLoop=1;jettySize=auto;html=1;exitX=0.5;exitY=1;exitDx=0;exitDy=0;entryX=0.347;entryY=0.119;entryDx=0;entryDy=0;entryPerimeter=0;" edge="1" parent="WIyWlLk6GJQsqaUBKTNV-1" source="jRuMcLEhQL0jCplDiOdC-70" target="jRuMcLEhQL0jCplDiOdC-72">
          <mxGeometry relative="1" as="geometry" />
        </mxCell>
        <mxCell id="jRuMcLEhQL0jCplDiOdC-75" style="edgeStyle=orthogonalEdgeStyle;rounded=0;orthogonalLoop=1;jettySize=auto;html=1;exitX=1;exitY=0.5;exitDx=0;exitDy=0;entryX=0.25;entryY=0.289;entryDx=0;entryDy=0;entryPerimeter=0;" edge="1" parent="WIyWlLk6GJQsqaUBKTNV-1" source="jRuMcLEhQL0jCplDiOdC-72" target="jRuMcLEhQL0jCplDiOdC-69">
          <mxGeometry relative="1" as="geometry">
            <Array as="points">
              <mxPoint x="1230" y="2370" />
              <mxPoint x="1230" y="260" />
              <mxPoint x="250" y="260" />
            </Array>
          </mxGeometry>
        </mxCell>
      </root>
    </mxGraphModel>
  </diagram>
</mxfile>
